# xmcd
#
# Track frame offsets: 
#        150
#        19663
#        39270
#        57960
#        77614
#        96551
#        122232
#        141310
#        182241
#        208039
#        227000
#        248441
#        318509
#        332830
#
# Disc length: 4571 seconds
#
# Revision: 2
# Processed by: cddbd v1.5.2PL0 Copyright (c) Steve Scherf et al.
# Submitted via: ExactAudioCopyFreeDBPlugin 1.0
#
DISCID=c111d90e
DTITLE=John Lee Hooker - Boom Boom Live On Air 1976 (1976-11-09 Chicag
DTITLE=o, Illinois)
DYEAR=1976
DGENRE=Blues
TTITLE0=Boom Boom
TTITLE1=Serves Me Right To Suffer
TTITLE2=You Know It Ain't Right
TTITLE3=Hobo Blues
TTITLE4=One Bourbon, One Scotch, One Beer
TTITLE5=Whiskey And Women
TTITLE6=Crawlin' King Snake
TTITLE7=Boogie Chillen
TTITLE8=You Know I Love You
TTITLE9=Maudie
TTITLE10=Crazy 'bout You Baby
TTITLE11=Boogie Chillen
TTITLE12=I Need Some Money
TTITLE13=Bundle Up And Go
EXTD=
EXTT0=
EXTT1=
EXTT2=
EXTT3=
EXTT4=
EXTT5=
EXTT6=
EXTT7=
EXTT8=
EXTT9=
EXTT10=
EXTT11=
EXTT12=
EXTT13=
PLAYORDER=
